<?xml version="1.0" encoding="utf-8"?>
<!-- Generator: Adobe Illustrator 21.1.0, SVG Export Plug-In . SVG Version: 6.00 Build 0)  -->
<svg version="1.1" id="Layer_1" xmlns="http://www.w3.org/2000/svg" xmlns:xlink="http://www.w3.org/1999/xlink" x="0px" y="0px"
	 viewBox="0 0 100 125" style="enable-background:new 0 0 100 125;" xml:space="preserve">
<path d="M65.3,33.9l-0.2,0c-0.9-0.1-1.8,0.1-2.5,0.5l0.1-1.9c0.1-1.2-0.3-2.3-1.1-3.2c-0.8-0.9-1.8-1.4-3-1.5l-0.2,0
	c-1.2-0.1-2.3,0.3-3.2,1.1c0,0-0.1,0.1-0.1,0.1c-0.7-1.4-2.2-2.3-3.8-2.3h-0.2c-1.8,0-3.3,1.1-4,2.6c-0.1-0.1-0.2-0.2-0.3-0.3
	c-0.9-0.8-2-1.1-3.2-1l-0.2,0c-2.4,0.2-4.2,2.3-4,4.7l1.2,14.8c0,0,0,0,0,0l0.2,2.9c-2.1-1.9-5.6-5-8.7-2.6c-1,0.8-1.6,1.8-1.7,2.9
	c-0.2,2.2,1.6,4.2,3.6,6.3c0.4,0.5,0.9,0.9,1.3,1.4c0.6,0.8,1,1.3,1.4,2c0.8,1.5,1.8,3.3,6,7.1c0.7,0.6,1,1.9,1,4
	c0,0.8,0.7,1.5,1.5,1.5s1.5-0.7,1.5-1.5c0-3-0.6-5-2-6.2c-3.8-3.5-4.6-5-5.4-6.4c-0.4-0.8-0.9-1.5-1.7-2.5c-0.4-0.5-0.9-1-1.3-1.5
	c-1.3-1.4-2.9-3.1-2.8-4.1c0-0.1,0-0.4,0.6-0.8c1.1-0.9,3.3,1.2,4.8,2.6c1.6,1.4,2.7,2.5,4,1.8c1.3-0.6,1.1-2.2,1-2.8l-0.3-3.1
	c0,0,0,0,0,0l-1.3-16.2c-0.1-0.8,0.5-1.4,1.3-1.5l0.2,0c0.4,0,0.7,0.1,1,0.3c0.3,0.2,0.5,0.6,0.5,0.9l1.3,16.2c0.1,1.9,3,1.7,3-0.1
	V31.1c0-0.8,0.6-1.4,1.4-1.4h0.2c0.8,0,1.4,0.6,1.4,1.4v18.2c0,1.9,2.9,2,3,0.1l1.1-17.2c0-0.4,0.2-0.7,0.5-1c0.3-0.2,0.6-0.4,1-0.3
	l0.2,0c0.4,0,0.7,0.2,1,0.5c0.2,0.3,0.4,0.6,0.3,1l-1.1,17.9c-0.1,1.9,2.7,2.1,3,0.3l1.8-12.4c0-0.4,0.2-0.7,0.5-1
	c0.2-0.2,0.5-0.3,1-0.3l0.2,0c0.4,0,0.7,0.2,0.9,0.5c0.2,0.3,0.3,0.6,0.3,1l-1.6,15.8c0,0,0,0,0,0.1c0,0,0,0.1,0,0.1v6.9
	c0,2.4-1,3.9-2,5.4c-1,1.4-1.9,2.9-1.9,5c0,0.8,0.7,1.5,1.5,1.5c0.8,0,1.5-0.7,1.5-1.5c0-1.2,0.6-2.1,1.4-3.4
	c1.1-1.7,2.5-3.8,2.5-7.1v-6.9l1.6-15.8C69.5,36.3,67.7,34.2,65.3,33.9z"/>
</svg>
